<?xml version="1.0" encoding="UTF-8" standalone="no"?>
<svg width="67px" height="67px" viewBox="0 0 67 67" version="1.1" xmlns="http://www.w3.org/2000/svg" xmlns:xlink="http://www.w3.org/1999/xlink" xmlns:sketch="http://www.bohemiancoding.com/sketch/ns">
    <!-- Generator: Sketch 3.3.3 (12072) - http://www.bohemiancoding.com/sketch -->
    <title>Oval 4 + Rectangle 16</title>
    <desc>Created with Sketch.</desc>
    <defs></defs>
    <g id="Page-1" stroke="none" stroke-width="1" fill="none" fill-rule="evenodd" sketch:type="MSPage">
        <g id="Desktop-HD" sketch:type="MSArtboardGroup" transform="translate(-1173.000000, -22.000000)">
            <g id="Oval-4-+-Rectangle-16" sketch:type="MSLayerGroup" transform="translate(1176.000000, 25.000000)">
                <circle id="Oval-4" stroke="#FFFFFF" stroke-width="5" sketch:type="MSShapeGroup" cx="30.5" cy="30.5" r="30.5"></circle>
                <path d="M27.2183544,27.0253165 L8.67880052,27.0253165 C6.87996968,27.0253165 5.40506329,28.4945592 5.40506329,30.306962 C5.40506329,32.115677 6.87076537,33.5886076 8.67880052,33.5886076 L27.2183544,33.5886076 L27.2183544,52.1281615 C27.2183544,53.9269923 28.6875972,55.4018987 30.5,55.4018987 C32.3087149,55.4018987 33.7816456,53.9361967 33.7816456,52.1281615 L33.7816456,33.5886076 L52.3211995,33.5886076 C54.1200303,33.5886076 55.5949367,32.1193648 55.5949367,30.306962 C55.5949367,28.4982471 54.1292346,27.0253165 52.3211995,27.0253165 L33.7816456,27.0253165 L33.7816456,8.48576254 C33.7816456,6.68693171 32.3124028,5.21202532 30.5,5.21202532 C28.6912851,5.21202532 27.2183544,6.6777274 27.2183544,8.48576254 L27.2183544,27.0253165 Z" id="Rectangle-16" fill="#FFFFFF" sketch:type="MSShapeGroup"></path>
            </g>
        </g>
    </g>
</svg>